# xmcd
#
# Track frame offsets:
#	150
#	29007
#	53315
#	72417
#	95137
#	114570
#	129767
#	147120
#	169560
#	195510
#
# Disc length: 2877 seconds
#
# Revision: 0
# Processed by: cddbd v1.5.1PL0 Copyright (c) Steve Scherf et al.
# Submitted via: audiograbber 1.81.02
#
DISCID=830b3b0a
DTITLE=Inti - Amazonas
DYEAR=2001
DGENRE=Indie
TTITLE0=Otavalo Manta
TTITLE1=La Puerta del Sol
TTITLE2=Promesa
TTITLE3=San Juan_1
TTITLE4=Lamentos
TTITLE5=Sin Fin
TTITLE6=San Juan_2
TTITLE7=Achacachi
TTITLE8=Mi Pequena Celeste
TTITLE9=Suenos
EXTD=
EXTT0=
EXTT1=
EXTT2=
EXTT3=
EXTT4=
EXTT5=
EXTT6=
EXTT7=
EXTT8=
EXTT9=
PLAYORDER=
